<?xml version="1.0" encoding="UTF-8" standalone="no"?>
<svg
   xmlns:dc="http://purl.org/dc/elements/1.1/"
   xmlns:cc="http://creativecommons.org/ns#"
   xmlns:rdf="http://www.w3.org/1999/02/22-rdf-syntax-ns#"
   xmlns:svg="http://www.w3.org/2000/svg"
   xmlns="http://www.w3.org/2000/svg"
   xmlns:sodipodi="http://sodipodi.sourceforge.net/DTD/sodipodi-0.dtd"
   xmlns:inkscape="http://www.inkscape.org/namespaces/inkscape"
   inkscape:export-ydpi="96"
   inkscape:export-xdpi="96"
   inkscape:export-filename="/Users/marinmema/web-apps/minesweeper/browser/tile-sheet.png"
   sodipodi:docname="tile-sheet.svg"
   inkscape:version="1.0 (4035a4f, 2020-05-01)"
   id="svg8"
   version="1.1"
   viewBox="0 0 63.499999 19.05"
   height="72"
   width="240">
  <defs
     id="defs2" />
  <sodipodi:namedview
     inkscape:guide-bbox="true"
     showguides="true"
     inkscape:snap-bbox-midpoints="true"
     inkscape:snap-bbox-edge-midpoints="true"
     inkscape:bbox-nodes="true"
     inkscape:bbox-paths="true"
     inkscape:snap-bbox="true"
     inkscape:showpageshadow="false"
     inkscape:snap-global="true"
     inkscape:snap-text-baseline="false"
     guidetolerance="10000"
     objecttolerance="10000"
     inkscape:window-maximized="0"
     inkscape:window-y="23"
     inkscape:window-x="0"
     inkscape:window-height="954"
     inkscape:window-width="2044"
     inkscape:pagecheckerboard="false"
     units="px"
     showgrid="true"
     inkscape:document-rotation="0"
     inkscape:current-layer="layer1"
     inkscape:document-units="px"
     inkscape:cy="47.672003"
     inkscape:cx="83.581453"
     inkscape:zoom="6.7893892"
     inkscape:pageshadow="2"
     inkscape:pageopacity="0.0"
     borderopacity="1.0"
     bordercolor="#666666"
     pagecolor="#ffffff"
     id="base">
    <inkscape:grid
       spacingy="0.26458333"
       spacingx="0.26458333"
       visible="true"
       dotted="false"
       empspacing="4"
       id="grid1549"
       type="xygrid" />
    <inkscape:grid
       opacity="0"
       color="#3f3fff"
       empopacity="0.25098039"
       empcolor="#fd3ffa"
       spacingy="0.26458333"
       spacingx="0.26458333"
       empspacing="24"
       id="grid1565"
       type="xygrid" />
  </sodipodi:namedview>
  <metadata
     id="metadata5">
    <rdf:RDF>
      <cc:Work
         rdf:about="">
        <dc:format>image/svg+xml</dc:format>
        <dc:type
           rdf:resource="http://purl.org/dc/dcmitype/StillImage" />
        <dc:title />
      </cc:Work>
    </rdf:RDF>
  </metadata>
  <g
     id="layer1"
     inkscape:groupmode="layer"
     inkscape:label="Layer 1">
    <g
       style="fill:#2a7fff"
       id="g1571"
       transform="matrix(0.00741253,0,0,0.00861615,1.3540119,7.4083362)">
      <path
         d="m 429.666,22.73 c -108,-77.849 -215.982,73.553 -323.981,20.898 V 32.427 C 105.685,18.516 94.399,7.23 80.489,7.23 66.579,7.23 55.295,18.516 55.295,32.427 V 466.13 c 0,13.909 11.284,25.195 25.194,25.195 13.91,0 25.196,-11.286 25.196,-25.195 V 282.395 c 102.651,50.03 205.304,-84.264 307.973,-30.821 4.739,2.477 10.433,2.313 15.007,-0.477 4.578,-2.771 7.367,-7.725 7.367,-13.09 0,-67.612 0,-135.228 0,-202.859 -10e-4,-4.903 -2.382,-9.548 -6.366,-12.418 z"
         id="path1569"
         style="fill:#2a7fff" />
    </g>
    <rect
       y="6.3499999"
       x="12.7"
       height="6.3499999"
       width="6.3499999"
       id="rect1609"
       style="opacity:0;fill:#ff00ff;fill-opacity:1;stroke:none;stroke-width:0.264999;stroke-miterlimit:4;stroke-dasharray:none;stroke-opacity:1;paint-order:markers fill stroke" />
    <rect
       y="12.7"
       x="1.3933727e-08"
       height="6.3499999"
       width="6.3499999"
       id="rect1611"
       style="opacity:1;fill:#ffffff;fill-opacity:1;stroke:none;stroke-width:0.454284;stroke-miterlimit:4;stroke-dasharray:none;stroke-opacity:1;paint-order:markers fill stroke" />
    <rect
       style="opacity:1;fill:#f9f9f9;fill-opacity:1;stroke:none;stroke-width:0.454284;stroke-miterlimit:4;stroke-dasharray:none;stroke-opacity:1;paint-order:markers fill stroke"
       id="rect1613"
       width="6.3499999"
       height="6.3499999"
       x="6.3499999"
       y="12.7" />
    <rect
       y="12.960271"
       x="12.96027"
       height="5.8294582"
       width="5.8294592"
       id="rect1615"
       style="opacity:1;fill:none;fill-opacity:1;stroke:#ff6600;stroke-width:0.520542;stroke-miterlimit:4;stroke-dasharray:none;stroke-opacity:1;paint-order:markers fill stroke" />
    <text
       id="text1623"
       y="3.175"
       x="8.7312498"
       style="font-size:3.175px;line-height:1.25;font-family:sans-serif;stroke-width:0.264583"
       xml:space="preserve"><tspan
         style="stroke-width:0.264583"
         y="3.175"
         x="8.7312498"
         id="tspan1621"
         sodipodi:role="line" /></text>
    <text
       xml:space="preserve"
       style="font-size:4.23332999999999959px;line-height:1.25;font-family:sans-serif;fill:#aaccff;stroke-width:0.264583;"
       x="8.7746582"
       y="4.3160157"
       id="text1627"
       transform="translate(-0.250114,0.38033833)"><tspan
         sodipodi:role="line"
         id="tspan1625"
         x="8.7746582"
         y="4.3160157"
         style="font-style:normal;font-variant:normal;font-weight:bold;font-stretch:normal;font-size:4.23332999999999959px;font-family:Arial;-inkscape-font-specification:'Arial Bold';fill:#aaccff;stroke-width:0.264583;">1</tspan></text>
    <text
       id="text1631"
       y="4.3160157"
       x="15.032415"
       style="font-size:4.23332999999999959px;line-height:1.25;font-family:sans-serif;fill:#87deaa;stroke-width:0.264583;"
       xml:space="preserve"
       transform="translate(-0.28086117,0.38033833)"><tspan
         style="font-style:normal;font-variant:normal;font-weight:bold;font-stretch:normal;font-size:4.23332999999999959px;font-family:Arial;-inkscape-font-specification:'Arial Bold';fill:#87deaa;stroke-width:0.264583;"
         y="4.3160157"
         x="15.032415"
         id="tspan1629"
         sodipodi:role="line">2</tspan></text>
    <text
       xml:space="preserve"
       style="font-size:4.23332999999999959px;line-height:1.25;font-family:sans-serif;fill:#e3d7f4;stroke-width:0.264583;"
       x="21.350634"
       y="4.2966371"
       id="text1635"
       transform="translate(-0.29145415,0.37387877)"><tspan
         sodipodi:role="line"
         id="tspan1633"
         x="21.350634"
         y="4.2966371"
         style="font-style:normal;font-variant:normal;font-weight:bold;font-stretch:normal;font-size:4.23332999999999959px;font-family:Arial;-inkscape-font-specification:'Arial Bold';fill:#e3d7f4;stroke-width:0.264583;">3</tspan></text>
    <text
       id="text1639"
       y="4.3160157"
       x="27.699083"
       style="font-size:4.23332999999999959px;line-height:1.25;font-family:sans-serif;fill:#ffaaaa;stroke-width:0.264583;"
       xml:space="preserve"
       transform="translate(-0.291971,0.38033833)"><tspan
         style="font-style:normal;font-variant:normal;font-weight:bold;font-stretch:normal;font-size:4.23332999999999959px;font-family:Arial;-inkscape-font-specification:'Arial Bold';fill:#ffaaaa;stroke-width:0.264583;"
         y="4.3160157"
         x="27.699083"
         id="tspan1637"
         sodipodi:role="line">4</tspan></text>
    <text
       xml:space="preserve"
       style="font-size:4.23332999999999959px;line-height:1.25;font-family:sans-serif;fill:#c6afe9;stroke-width:0.264583;"
       x="34.01963"
       y="4.2764831"
       id="text1643"
       transform="translate(-0.30179227,0.36716103)"><tspan
         sodipodi:role="line"
         id="tspan1641"
         x="34.01963"
         y="4.2764831"
         style="font-style:normal;font-variant:normal;font-weight:bold;font-stretch:normal;font-size:4.23332999999999959px;font-family:Arial;-inkscape-font-specification:'Arial Bold';fill:#c6afe9;stroke-width:0.264583;">5</tspan></text>
    <text
       id="text1647"
       y="4.2966371"
       x="40.381256"
       style="font-size:4.23332999999999959px;line-height:1.25;font-family:sans-serif;fill:#ff80b2;stroke-width:0.264583;"
       xml:space="preserve"
       transform="translate(-0.29791509,0.37387877)"><tspan
         style="font-style:normal;font-variant:normal;font-weight:bold;font-stretch:normal;font-size:4.23332999999999959px;font-family:Arial;-inkscape-font-specification:'Arial Bold';fill:#ff80b2;stroke-width:0.264583;"
         y="4.2966371"
         x="40.381256"
         id="tspan1645"
         sodipodi:role="line">6</tspan></text>
    <text
       xml:space="preserve"
       style="font-size:4.23332999999999959px;line-height:1.25;font-family:sans-serif;fill:#de87cd;stroke-width:0.264583;"
       x="46.745209"
       y="4.2958617"
       id="text1651"
       transform="translate(-0.29326429,0.37362058)"><tspan
         sodipodi:role="line"
         id="tspan1649"
         x="46.745209"
         y="4.2958617"
         style="font-style:normal;font-variant:normal;font-weight:bold;font-stretch:normal;font-size:4.23332999999999959px;font-family:Arial;-inkscape-font-specification:'Arial Bold';fill:#de87cd;stroke-width:0.264583;">7</tspan></text>
    <text
       id="text1655"
       y="4.2958617"
       x="53.099083"
       style="font-size:4.23332999999999959px;line-height:1.25;font-family:sans-serif;fill:#afe9c6;stroke-width:0.264583;"
       xml:space="preserve"
       transform="translate(-0.29197094,0.37362058)"><tspan
         style="font-style:normal;font-variant:normal;font-weight:bold;font-stretch:normal;font-size:4.23332999999999959px;font-family:Arial;-inkscape-font-specification:'Arial Bold';fill:#afe9c6;stroke-width:0.264583;"
         y="4.2958617"
         x="53.099083"
         id="tspan1653"
         sodipodi:role="line">8</tspan></text>
    <g
       transform="matrix(0.00741253,0,0,0.00861615,7.7040118,7.4083362)"
       id="g870"
       style="fill:#d40000">
      <path
         id="path868"
         d="m 429.666,22.73 c -108,-77.849 -215.982,73.553 -323.981,20.898 V 32.427 C 105.685,18.516 94.399,7.23 80.489,7.23 66.579,7.23 55.295,18.516 55.295,32.427 V 466.13 c 0,13.909 11.284,25.195 25.194,25.195 13.91,0 25.196,-11.286 25.196,-25.195 V 282.395 c 102.651,50.03 205.304,-84.264 307.973,-30.821 4.739,2.477 10.433,2.313 15.007,-0.477 4.578,-2.771 7.367,-7.725 7.367,-13.09 0,-67.612 0,-135.228 0,-202.859 -10e-4,-4.903 -2.382,-9.548 -6.366,-12.418 z"
         style="fill:#d40000" />
    </g>
    <path
       style="fill:none;stroke:#e5e5e5;stroke-width:1px;stroke-linecap:butt;stroke-linejoin:miter;stroke-opacity:1"
       d="M 0,8 8,0"
       id="path2890"
       transform="scale(0.26458333)" />
    <path
       style="fill:none;stroke:#e5e5e5;stroke-width:1px;stroke-linecap:butt;stroke-linejoin:miter;stroke-opacity:1"
       d="M 0,16 16,0"
       id="path2892"
       transform="scale(0.26458333)" />
    <path
       style="fill:none;stroke:#e5e5e5;stroke-width:1px;stroke-linecap:butt;stroke-linejoin:miter;stroke-opacity:1"
       d="M 0,24 24,0"
       id="path2894"
       transform="scale(0.26458333)" />
    <path
       style="fill:none;stroke:#e5e5e5;stroke-width:1px;stroke-linecap:butt;stroke-linejoin:miter;stroke-opacity:1"
       d="M 8,24 24,8"
       id="path2896"
       transform="scale(0.26458333)" />
    <path
       style="fill:none;stroke:#e5e5e5;stroke-width:1px;stroke-linecap:butt;stroke-linejoin:miter;stroke-opacity:1"
       d="m 16,24 8,-8"
       id="path2898"
       transform="scale(0.26458333)"
       inkscape:export-xdpi="96"
       inkscape:export-ydpi="96" />
    <path
       style="fill:none;stroke:#e5e5e5;stroke-width:1px;stroke-linecap:butt;stroke-linejoin:miter;stroke-opacity:1"
       d="M 0,0 24,24"
       id="path2900"
       transform="scale(0.26458333)" />
    <path
       style="fill:none;stroke:#e5e5e5;stroke-width:1px;stroke-linecap:butt;stroke-linejoin:miter;stroke-opacity:1"
       d="M 0,8 16,24"
       id="path2902"
       transform="scale(0.26458333)" />
    <path
       style="fill:none;stroke:#e5e5e5;stroke-width:1px;stroke-linecap:butt;stroke-linejoin:miter;stroke-opacity:1"
       d="m 0,16 8,8"
       id="path2904"
       transform="scale(0.26458333)" />
    <path
       style="fill:none;stroke:#e5e5e5;stroke-width:1px;stroke-linecap:butt;stroke-linejoin:miter;stroke-opacity:1"
       d="M 8,0 24,16"
       id="path2906"
       transform="scale(0.26458333)" />
    <path
       style="fill:none;stroke:#e5e5e5;stroke-width:1px;stroke-linecap:butt;stroke-linejoin:miter;stroke-opacity:1"
       d="m 16,0 8,8"
       id="path2908"
       transform="scale(0.26458333)" />
    <path
       style="fill:#ffd5d5;stroke:#777777;stroke-width:1px;stroke-linecap:butt;stroke-linejoin:miter;stroke-opacity:1"
       d="m 72,56 8,-8"
       id="path2954"
       transform="scale(0.26458333)" />
    <path
       style="fill:none;stroke:#777777;stroke-width:1px;stroke-linecap:butt;stroke-linejoin:miter;stroke-opacity:1"
       d="M 72,64 88,48"
       id="path2958"
       transform="scale(0.26458333)" />
    <path
       style="fill:none;stroke:#777777;stroke-width:1px;stroke-linecap:butt;stroke-linejoin:miter;stroke-opacity:1"
       d="M 72,72 96,48"
       id="path2960"
       transform="scale(0.26458333)" />
    <path
       style="fill:none;stroke:#777777;stroke-width:1px;stroke-linecap:butt;stroke-linejoin:miter;stroke-opacity:1"
       d="M 80,72 96,56"
       id="path2962"
       transform="scale(0.26458333)" />
    <path
       style="fill:none;stroke:#777777;stroke-width:1px;stroke-linecap:butt;stroke-linejoin:miter;stroke-opacity:1"
       d="m 88,72 8,-8"
       id="path2964"
       transform="scale(0.26458333)" />
    <path
       style="fill:none;stroke:#777777;stroke-width:1px;stroke-linecap:butt;stroke-linejoin:miter;stroke-opacity:1"
       d="M 72,48 96,72"
       id="path2966"
       transform="scale(0.26458333)" />
    <path
       style="fill:none;stroke:#777777;stroke-width:1px;stroke-linecap:butt;stroke-linejoin:miter;stroke-opacity:1"
       d="M 80,48 96,64"
       id="path2968"
       transform="scale(0.26458333)" />
    <path
       style="fill:none;stroke:#777777;stroke-width:1px;stroke-linecap:butt;stroke-linejoin:miter;stroke-opacity:1"
       d="m 88,48 8,8"
       id="path2970"
       transform="scale(0.26458333)" />
    <path
       style="fill:none;stroke:#777777;stroke-width:1px;stroke-linecap:butt;stroke-linejoin:miter;stroke-opacity:1"
       d="M 72,56 88,72"
       id="path2972"
       transform="scale(0.26458333)" />
    <path
       style="fill:none;stroke:#777777;stroke-width:1px;stroke-linecap:butt;stroke-linejoin:miter;stroke-opacity:1"
       d="m 72,64 8,8"
       id="path2974"
       transform="scale(0.26458333)" />
    <path
       transform="matrix(0.26458333,0,0,0.26458333,6.3499999,0)"
       id="path2976"
       d="m 72,56 8,-8"
       style="fill:#ffd5d5;stroke:#00ca1a;stroke-width:1px;stroke-linecap:butt;stroke-linejoin:miter;stroke-opacity:0.95137262" />
    <path
       transform="matrix(0.26458333,0,0,0.26458333,6.3499999,0)"
       id="path2978"
       d="M 72,64 88,48"
       style="fill:none;stroke:#00ca1a;stroke-width:1px;stroke-linecap:butt;stroke-linejoin:miter;stroke-opacity:0.95137262" />
    <path
       transform="matrix(0.26458333,0,0,0.26458333,6.3499999,0)"
       id="path2980"
       d="M 72,72 96,48"
       style="fill:none;stroke:#00ca1a;stroke-width:1px;stroke-linecap:butt;stroke-linejoin:miter;stroke-opacity:0.95137262" />
    <path
       transform="matrix(0.26458333,0,0,0.26458333,6.3499999,0)"
       id="path2982"
       d="M 80,72 96,56"
       style="fill:none;stroke:#00ca1a;stroke-width:1px;stroke-linecap:butt;stroke-linejoin:miter;stroke-opacity:0.95137262" />
    <path
       transform="matrix(0.26458333,0,0,0.26458333,6.3499999,0)"
       id="path2984"
       d="m 88,72 8,-8"
       style="fill:none;stroke:#00ca1a;stroke-width:1px;stroke-linecap:butt;stroke-linejoin:miter;stroke-opacity:0.95137262" />
    <path
       transform="matrix(0.26458333,0,0,0.26458333,6.3499999,0)"
       id="path2986"
       d="M 72,48 96,72"
       style="fill:none;stroke:#00ca1a;stroke-width:1px;stroke-linecap:butt;stroke-linejoin:miter;stroke-opacity:0.95137262" />
    <path
       transform="matrix(0.26458333,0,0,0.26458333,6.3499999,0)"
       id="path2988"
       d="M 80,48 96,64"
       style="fill:none;stroke:#00ca1a;stroke-width:1px;stroke-linecap:butt;stroke-linejoin:miter;stroke-opacity:0.95137262" />
    <path
       transform="matrix(0.26458333,0,0,0.26458333,6.3499999,0)"
       id="path2990"
       d="m 88,48 8,8"
       style="fill:none;stroke:#00ca1a;stroke-width:1px;stroke-linecap:butt;stroke-linejoin:miter;stroke-opacity:0.95137262" />
    <path
       transform="matrix(0.26458333,0,0,0.26458333,6.3499999,0)"
       id="path2992"
       d="M 72,56 88,72"
       style="fill:none;stroke:#00ca1a;stroke-width:1px;stroke-linecap:butt;stroke-linejoin:miter;stroke-opacity:0.95137262" />
    <path
       transform="matrix(0.26458333,0,0,0.26458333,6.3499999,0)"
       id="path2994"
       d="m 72,64 8,8"
       style="fill:none;stroke:#00ca1a;stroke-width:1px;stroke-linecap:butt;stroke-linejoin:miter;stroke-opacity:0.95137262" />
    <g
       style="fill:#cccbcb;fill-opacity:1"
       id="g898"
       transform="matrix(0.00741253,0,0,0.00861615,14.054012,7.4083362)">
      <path
         style="fill:#cccbcb;fill-opacity:1"
         d="m 429.666,22.73 c -108,-77.849 -215.982,73.553 -323.981,20.898 V 32.427 C 105.685,18.516 94.399,7.23 80.489,7.23 66.579,7.23 55.295,18.516 55.295,32.427 V 466.13 c 0,13.909 11.284,25.195 25.194,25.195 13.91,0 25.196,-11.286 25.196,-25.195 V 282.395 c 102.651,50.03 205.304,-84.264 307.973,-30.821 4.739,2.477 10.433,2.313 15.007,-0.477 4.578,-2.771 7.367,-7.725 7.367,-13.09 0,-67.612 0,-135.228 0,-202.859 -10e-4,-4.903 -2.382,-9.548 -6.366,-12.418 z"
         id="path896" />
    </g>
  </g>
</svg>
